<svg width="344" height="344" viewBox="0 0 344 344" fill="none" xmlns="http://www.w3.org/2000/svg">
<path fill-rule="evenodd" clip-rule="evenodd" d="M113.763 338.106C154.769 338.668 196.146 345.773 234.622 334.655C276.414 322.577 325.294 305.869 339.625 272.837C354.323 238.957 316.924 205.405 305.749 170.71C297.45 144.944 293.591 119.581 282.201 94.5492C268.628 64.7216 270.972 19.3553 232.473 9.68139C190.319 -0.910899 157.994 53.6909 113.763 52.2249C66.1909 50.6482 35.8586 -5.45132 -10.8934 1.61532C-52.5571 7.91284 -67.3797 50.8977 -82.6279 81.9097C-96.515 110.153 -104.894 141.664 -94.0354 170.71C-83.9749 197.621 -40.1295 208.123 -25.8322 233.83C-8.72411 264.592 -35.682 308.219 -4.68016 331.377C24.4609 353.145 73.4983 337.555 113.763 338.106Z" stroke="#CAFC01" stroke-opacity="0.2"/>
<path fill-rule="evenodd" clip-rule="evenodd" d="M115.215 319.952C148.835 320.413 182.76 326.237 214.306 317.123C248.57 307.223 288.646 293.526 300.396 266.448C312.447 238.676 281.783 211.172 272.621 182.732C265.817 161.61 262.653 140.819 253.314 120.3C242.186 95.8488 244.109 58.6604 212.544 50.7303C177.982 42.0474 151.48 86.8065 115.215 85.6048C76.2116 84.3123 51.3427 38.3255 13.0115 44.1183C-21.1478 49.2806 -33.3006 84.5168 -45.8024 109.939C-57.1882 133.091 -64.0582 158.922 -55.1552 182.732C-46.9068 204.791 -10.9587 213.4 0.763445 234.473C14.7901 259.69 -7.31221 295.453 18.1057 314.436C41.9979 332.28 82.2029 319.5 115.215 319.952Z" stroke="#CAFC01" stroke-opacity="0.2"/>
<path fill-rule="evenodd" clip-rule="evenodd" d="M116.588 293.657C143.375 294.024 170.404 298.662 195.538 291.404C222.838 283.521 254.768 272.615 264.13 251.052C273.732 228.938 249.301 207.036 242.001 184.389C236.58 167.57 234.059 151.014 226.618 134.675C217.752 115.205 219.283 85.5916 194.134 79.277C166.598 72.3628 145.481 108.004 116.588 107.047C85.5119 106.018 65.6976 69.399 35.1573 74.0118C7.94092 78.1225 -1.7418 106.181 -11.7026 126.424C-20.7741 144.86 -26.2478 165.429 -19.1544 184.389C-12.5825 201.955 16.0591 208.81 25.3987 225.591C36.5744 245.67 18.9644 274.148 39.2161 289.265C58.2521 303.474 90.2854 293.297 116.588 293.657Z" stroke="#CAFC01" stroke-opacity="0.2"/>
</svg>
