<svg width="444" height="344" viewBox="0 0 444 344" fill="none" xmlns="http://www.w3.org/2000/svg">
<path fill-rule="evenodd" clip-rule="evenodd" d="M213.763 338.106C254.769 338.668 296.146 345.773 334.622 334.655C376.414 322.577 425.294 305.869 439.625 272.837C454.323 238.957 416.924 205.405 405.749 170.71C397.45 144.944 393.591 119.581 382.201 94.5492C368.628 64.7216 370.972 19.3553 332.473 9.68139C290.319 -0.910899 257.994 53.6909 213.763 52.2249C166.191 50.6482 135.859 -5.45132 89.1066 1.61532C47.4429 7.91284 32.6203 50.8977 17.3721 81.9097C3.48503 110.153 -4.89429 141.664 5.96457 170.71C16.0251 197.621 59.8705 208.123 74.1678 233.83C91.2759 264.592 64.318 308.219 95.3198 331.377C124.461 353.145 173.498 337.555 213.763 338.106Z" stroke="#CAFC01" stroke-opacity="0.2"/>
<path fill-rule="evenodd" clip-rule="evenodd" d="M215.215 319.952C248.835 320.413 282.76 326.237 314.306 317.123C348.57 307.223 388.646 293.526 400.396 266.448C412.447 238.676 381.783 211.172 372.621 182.732C365.817 161.61 362.653 140.819 353.314 120.3C342.186 95.8488 344.109 58.6604 312.544 50.7303C277.982 42.0474 251.48 86.8065 215.215 85.6048C176.212 84.3123 151.343 38.3255 113.012 44.1183C78.8522 49.2806 66.6994 84.5168 54.1976 109.939C42.8118 133.091 35.9418 158.922 44.8448 182.732C53.0932 204.791 89.0413 213.4 100.763 234.473C114.79 259.69 92.6878 295.453 118.106 314.436C141.998 332.28 182.203 319.5 215.215 319.952Z" stroke="#CAFC01" stroke-opacity="0.2"/>
<path fill-rule="evenodd" clip-rule="evenodd" d="M216.588 293.657C243.375 294.024 270.404 298.662 295.538 291.404C322.838 283.521 354.768 272.615 364.13 251.052C373.732 228.938 349.301 207.036 342.001 184.389C336.58 167.57 334.059 151.014 326.618 134.675C317.752 115.205 319.283 85.5916 294.134 79.277C266.598 72.3628 245.481 108.004 216.588 107.047C185.512 106.018 165.698 69.399 135.157 74.0118C107.941 78.1225 98.2582 106.181 88.2974 126.424C79.2259 144.86 73.7522 165.429 80.8456 184.389C87.4175 201.955 116.059 208.81 125.399 225.591C136.574 245.67 118.964 274.148 139.216 289.265C158.252 303.474 190.285 293.297 216.588 293.657Z" stroke="#CAFC01" stroke-opacity="0.2"/>
</svg>
